# xmcd CD database file
#
# Track frame offsets:
#	150
#	14888
#	28122
#	45547
#	63560
#	77339
#	92974
#	112858
#	128069
#	143428
#
# Disc length: 2214 seconds
#
# Revision: 0
# Processed by: cddbd v1.5.2PL0 Copyright (c) Steve Scherf et al.
# Submitted via: ACXtractor (MTCDDB.DLL V2003.12.21)
#
DISCID=7c08a40a
DTITLE=Zach Williams - Chain Breaker
DYEAR=2017
DGENRE=Gospel
TTITLE0=Chain Breaker
TTITLE1=Old Church Choir
TTITLE2=Survivor
TTITLE3=To the Table
TTITLE4=My Liberty
TTITLE5=Song of Deliverance
TTITLE6=Fear is a Liar
TTITLE7=Everything Changed
TTITLE8=Revival
TTITLE9=So Good to Me
EXTD=ID3G:  38 YEAR: 2017
EXTT0=
EXTT1=
EXTT2=
EXTT3=
EXTT4=
EXTT5=
EXTT6=
EXTT7=
EXTT8=
EXTT9=
PLAYORDER=
